<svg width="451.36000976562497px" height="122.75999755859375px" xmlns="http://www.w3.org/2000/svg" viewBox="24.319995117187517 13.620001220703124 451.36000976562497 122.75999755859375" style="background: none;" preserveAspectRatio="xMidYMid"><defs><linearGradient id="editing-outline-gradient" x1="-0.41354545764260087" x2="1.4135454576426008" y1="0.09326335692419985" y2="0.9067366430758002"><stop offset="0" stop-color="#4139ff"></stop><stop offset="1" stop-color="#ee4208"></stop></linearGradient><filter id="editing-outline" x="-100%" y="-100%" width="300%" height="300%"><feMorphology in="SourceGraphic" operator="dilate" radius="1" result="outline"></feMorphology><feComposite operator="out" in="outline" in2="SourceAlpha"></feComposite></filter></defs><g filter="url(#editing-outline)"><g transform="translate(95.44469118118286, 102.86999702453613)"><path d="M-6.98 8.83L-6.98 8.83L-6.98 8.83Q-3.71 8.45-1.66 4.22L-1.66 4.22L-1.66 4.22Q0.45-0.06 2.37-9.92L2.37-9.92L8.58-42.24L22.46-42.24L16.26-9.92L16.26-9.92Q13.89 2.62 9.98 7.55L9.98 7.55L9.98 7.55Q7.94 10.11 5.34 11.14L5.34 11.14L5.34 11.14Q2.75 12.16-0.06 12.16L-0.06 12.16L-0.06 12.16Q-2.88 12.16-4.70 11.14L-4.70 11.14L-4.70 11.14Q-6.53 10.11-6.98 8.83ZM24.83-15.62L24.83-15.62L24.83-15.62Q24.83-27.71 31.10-35.33L31.10-35.33L31.10-35.33Q37.76-43.58 49.34-43.58L49.34-43.58L49.34-43.58Q57.73-43.58 61.95-39.52L61.95-39.52L61.95-39.52Q66.18-35.46 66.18-26.88L66.18-26.88L66.18-26.88Q66.18-13.82 59.52-6.21L59.52-6.21L59.52-6.21Q52.93 1.28 41.86 1.28L41.86 1.28L41.86 1.28Q33.22 1.28 29.02-3.04L29.02-3.04L29.02-3.04Q24.83-7.36 24.83-15.62ZM41.66-28.86L41.66-28.86L41.66-28.86Q38.78-17.34 38.78-8.26L38.78-8.26L38.78-8.26Q38.78-6.08 39.52-4.67L39.52-4.67L39.52-4.67Q40.26-3.26 42.21-3.26L42.21-3.26L42.21-3.26Q44.16-3.26 45.38-4.19L45.38-4.19L45.38-4.19Q46.59-5.12 47.55-7.23L47.55-7.23L47.55-7.23Q49.09-10.69 50.53-18.02L50.53-18.02L50.53-18.02Q51.97-25.34 52.10-28.38L52.10-28.38L52.10-28.38Q52.22-31.42 52.22-33.73L52.22-33.73L52.22-33.73Q52.22-36.03 51.52-37.50L51.52-37.50L51.52-37.50Q50.82-38.98 48.93-38.98L48.93-38.98L48.93-38.98Q47.04-38.98 45.76-37.82L45.76-37.82L45.76-37.82Q43.39-35.65 41.66-28.86ZM70.53-9.47L70.53-9.47L70.53-9.47Q70.53-11.97 71.17-15.17L71.17-15.17L76.35-42.24L90.50-42.24L85.38-14.98L85.38-14.98Q84.80-11.97 84.80-9.76L84.80-9.76L84.80-9.76Q84.80-7.55 85.73-6.40L85.73-6.40L85.73-6.40Q86.66-5.25 88.38-5.25L88.38-5.25L88.38-5.25Q90.11-5.25 91.20-5.70L91.20-5.70L91.20-5.70Q92.29-6.14 93.18-7.23L93.18-7.23L93.18-7.23Q94.91-9.41 96.00-14.98L96.00-14.98L101.18-42.24L110.85-42.24L105.73-15.04L105.73-15.04Q103.94-5.95 99.01-2.30L99.01-2.30L99.01-2.30Q94.21 1.28 84.74 1.28L84.74 1.28L84.74 1.28Q77.63 1.28 73.86-1.79L73.86-1.79L73.86-1.79Q70.53-4.48 70.53-9.47ZM125.25 0L111.55 0L119.36-42.05L119.36-42.05Q125.70-42.75 134.94-42.75L134.94-42.75L134.94-42.75Q144.19-42.75 148.48-40.06L148.48-40.06L148.48-40.06Q152.77-37.38 152.77-31.97L152.77-31.97L152.77-31.97Q152.77-26.56 149.98-23.17L149.98-23.17L149.98-23.17Q147.20-19.78 142.40-18.69L142.40-18.69L142.40-18.69Q143.49-13.38 145.98-9.09L145.98-9.09L145.98-9.09Q148.29-5.06 150.98-3.78L150.98-3.78L150.98-3.78Q150.02-1.09 148.06 0.10L148.06 0.10L148.06 0.10Q146.11 1.28 143.33 1.28L143.33 1.28L143.33 1.28Q140.54 1.28 138.37-0.35L138.37-0.35L138.37-0.35Q136.19-1.98 134.46-4.99L134.46-4.99L134.46-4.99Q130.82-11.52 130.43-21.82L130.43-21.82L130.88-21.82L130.88-21.82Q135.62-21.95 137.98-24.42L137.98-24.42L137.98-24.42Q140.35-26.88 140.35-32.06L140.35-32.06L140.35-32.06Q140.35-38.53 134.91-38.78L134.91-38.78L133.50-38.78L133.50-38.78Q132.93-38.78 132.61-38.72L132.61-38.72L125.25 0ZM162.30 0L155.26 0L162.94-42.24L176.70-42.24L186.69-13.18L192-42.24L199.10-42.18L191.30 0L176.64 0L167.42-27.97L162.30 0ZM228.03-9.86L228.03-9.86L228.03-9.86Q229.25-8.32 229.25-5.82L229.25-5.82L229.25-5.82Q229.25-2.37 226.69-0.54L226.69-0.54L226.69-0.54Q224.13 1.28 220.10 1.28L220.10 1.28L220.10 1.28Q217.79 1.28 214.27 0.77L214.27 0.77L214.27 0.77Q207.36-0.32 205.25-0.32L205.25-0.32L205.25-0.32Q203.14-0.32 202.30-0.22L202.30-0.22L202.30-0.22Q201.47-0.13 200.13 0L200.13 0L208-42.24L235.58-42.24L235.58-42.24Q235.58-38.34 233.70-36.29L233.70-36.29L233.70-36.29Q231.81-34.24 228.10-34.24L228.10-34.24L228.10-34.24Q224.38-34.24 220.61-35.97L220.61-35.97L218.62-24.77L230.02-24.77L230.02-24.77Q230.02-21.38 228.35-19.49L228.35-19.49L228.35-19.49Q226.69-17.60 223.90-17.60L223.90-17.60L223.90-17.60Q221.12-17.60 219.39-18.24L219.39-18.24L219.39-18.24Q217.66-18.88 217.47-19.07L217.47-19.07L215.17-6.98L215.17-6.98Q216.70-6.78 219.58-6.78L219.58-6.78L219.58-6.78Q224.51-6.78 228.03-9.86ZM241.22 0L244.93-18.82L244.93-18.82Q243.07-36.16 236.54-39.87L236.54-39.87L236.54-39.87Q237.89-41.54 240.06-42.46L240.06-42.46L240.06-42.46Q242.24-43.39 244.86-43.39L244.86-43.39L244.86-43.39Q247.49-43.39 249.47-42.46L249.47-42.46L249.47-42.46Q251.46-41.54 252.74-39.55L252.74-39.55L252.74-39.55Q255.17-35.78 255.17-26.75L255.17-26.75L255.17-22.14L255.17-22.14Q259.01-33.41 262.85-38.27L262.85-38.27L262.85-38.27Q266.75-43.26 271.62-43.26L271.62-43.26L271.62-43.26Q273.54-43.26 274.82-42.27L274.82-42.27L274.82-42.27Q276.10-41.28 276.74-39.81L276.74-39.81L276.74-39.81Q271.81-37.63 267.07-31.36L267.07-31.36L267.07-31.36Q262.34-25.09 259.26-16.32L259.26-16.32L255.49 0L241.22 0ZM297.66-29.57L297.66-29.57L297.66-29.57Q298.62-31.49 298.62-33.28L298.62-33.28L298.62-33.28Q298.62-35.07 298.43-36.06L298.43-36.06L298.43-36.06Q298.24-37.06 297.79-37.82L297.79-37.82L297.79-37.82Q296.83-39.49 294.91-39.49L294.91-39.49L294.91-39.49Q292.54-39.49 290.62-37.76L290.62-37.76L290.62-37.76Q288.58-35.97 288.58-33.15L288.58-33.15L288.58-33.15Q288.58-31.36 289.82-29.98L289.82-29.98L289.82-29.98Q291.07-28.61 292.99-27.33L292.99-27.33L292.99-27.33Q294.91-26.05 297.09-24.77L297.09-24.77L297.09-24.77Q299.26-23.49 301.18-21.95L301.18-21.95L301.18-21.95Q305.60-18.43 305.60-13.70L305.60-13.70L305.60-13.70Q305.60-10.50 303.90-7.78L303.90-7.78L303.90-7.78Q302.21-5.06 299.39-3.07L299.39-3.07L299.39-3.07Q293.25 1.28 285.12 1.28L285.12 1.28L285.12 1.28Q278.53 1.28 275.14-0.86L275.14-0.86L275.14-0.86Q271.74-3.01 271.74-6.27L271.74-6.27L271.74-6.27Q271.74-12.10 276.29-13.57L276.29-13.57L276.29-13.57Q277.57-14.02 279.52-14.02L279.52-14.02L279.52-14.02Q281.47-14.02 283.71-13.18L283.71-13.18L283.71-13.18Q282.69-10.56 282.69-8.19L282.69-8.19L282.69-8.19Q282.69-3.07 286.34-3.07L286.34-3.07L286.34-3.07Q288.70-3.07 290.66-4.80L290.66-4.80L290.66-4.80Q292.61-6.53 292.61-8.48L292.61-8.48L292.61-8.48Q292.61-10.43 291.36-11.84L291.36-11.84L291.36-11.84Q290.11-13.25 288.26-14.37L288.26-14.37L288.26-14.37Q286.40-15.49 284.26-16.58L284.26-16.58L284.26-16.58Q282.11-17.66 280.26-19.20L280.26-19.20L280.26-19.20Q275.90-22.72 275.90-28.35L275.90-28.35L275.90-28.35Q275.90-32 277.70-34.85L277.70-34.85L277.70-34.85Q279.49-37.70 282.37-39.62L282.37-39.62L282.37-39.62Q288.13-43.52 295.20-43.52L295.20-43.52L295.20-43.52Q302.27-43.52 305.70-41.41L305.70-41.41L305.70-41.41Q309.12-39.30 309.12-35.71L309.12-35.71L309.12-35.71Q309.12-32.58 306.69-30.59L306.69-30.59L306.69-30.59Q304.58-28.93 302.02-28.93L302.02-28.93L302.02-28.93Q299.46-28.93 297.66-29.57Z" fill="url(#editing-outline-gradient)"></path></g></g><style>text {
  font-size: 64px;
  font-family: Arial Black;
  dominant-baseline: central;
  text-anchor: middle;
}</style></svg>