<svg width="478.52000732421874px" height="122.75999755859375px" xmlns="http://www.w3.org/2000/svg" viewBox="10.73999633789063 13.620001220703124 478.52000732421874 122.75999755859375" style="background: none;" preserveAspectRatio="xMidYMid"><defs><linearGradient id="editing-outline-gradient" x1="-0.41354545764260087" x2="1.4135454576426008" y1="0.09326335692419985" y2="0.9067366430758002"><stop offset="0" stop-color="#ee4208"></stop><stop offset="1" stop-color="#4139ff"></stop></linearGradient><filter id="editing-outline" x="-100%" y="-100%" width="300%" height="300%"><feMorphology in="SourceGraphic" operator="dilate" radius="1" result="outline"></feMorphology><feComposite operator="out" in="outline" in2="SourceAlpha"></feComposite></filter></defs><g filter="url(#editing-outline)"><g transform="translate(82.79997324943542, 104.75999641418457)"><path d="M2.11-6.40L2.11-6.40L2.11-6.40Q2.11-8.13 3.01-12.48L3.01-12.48L6.40-29.76L2.62-29.76L2.88-31.68L2.88-31.68Q10.56-33.98 17.98-39.62L17.98-39.62L21.06-39.62L19.52-32.64L24.51-32.64L23.94-29.76L19.01-29.76L15.74-12.48L15.74-12.48Q14.91-8.51 14.91-7.17L14.91-7.17L14.91-7.17Q14.91-4.10 17.60-3.46L17.60-3.46L17.60-3.46Q16.96-1.28 14.66 0L14.66 0L14.66 0Q12.35 1.28 9.09 1.28L9.09 1.28L9.09 1.28Q5.82 1.28 3.97-0.77L3.97-0.77L3.97-0.77Q2.11-2.82 2.11-6.40ZM56.38-7.10L56.38-7.10L56.38-7.10Q56.38-4.29 59.26-3.46L59.26-3.46L59.26-3.46Q58.56-1.09 55.81 0.19L55.81 0.19L55.81 0.19Q53.50 1.28 50.98 1.28L50.98 1.28L50.98 1.28Q48.45 1.28 47.14 0.61L47.14 0.61L47.14 0.61Q45.82-0.06 45.12-1.15L45.12-1.15L45.12-1.15Q43.97-2.82 43.97-5.95L43.97-5.95L43.97-5.95Q43.97-7.81 44.99-12.93L44.99-12.93L45.89-17.79L45.89-17.79Q46.98-23.36 46.98-25.41L46.98-25.41L46.98-25.41Q46.98-28.99 44.99-28.99L44.99-28.99L44.99-28.99Q42.50-28.99 40.90-25.34L40.90-25.34L40.90-25.34Q40.26-23.94 39.81-21.82L39.81-21.82L35.46 0L22.59 1.28L31.62-44.80L44.48-46.08L43.97-43.52L43.97-43.52Q42.18-33.66 40.64-30.34L40.64-30.34L40.64-30.34Q44.22-33.92 50.82-33.92L50.82-33.92L50.82-33.92Q57.79-33.92 59.07-29.31L59.07-29.31L59.07-29.31Q59.52-27.84 59.52-26.56L59.52-26.56L59.52-26.56Q59.52-25.28 59.42-24.29L59.42-24.29L59.42-24.29Q59.33-23.30 59.01-21.50L59.01-21.50L58.18-16.90L56.70-9.66L56.70-9.66Q56.38-8.19 56.38-7.10ZM79.81-3.52L79.81-3.52L79.81-3.52Q77.82 1.28 71.49 1.28L71.49 1.28L71.49 1.28Q68.22 1.28 66.18-0.96L66.18-0.96L66.18-0.96Q64.45-2.94 64.45-4.93L64.45-4.93L64.45-4.93Q64.45-10.11 66.82-20.22L66.82-20.22L69.18-32.64L82.18-33.92L78.27-13.70L78.27-13.70Q77.18-8.96 77.18-7.30L77.18-7.30L77.18-7.30Q77.18-3.65 79.81-3.52ZM70.34-41.54L70.34-41.54L70.34-41.54Q70.34-44.03 72.42-45.38L72.42-45.38L72.42-45.38Q74.50-46.72 77.50-46.72L77.50-46.72L77.50-46.72Q80.51-46.72 82.34-45.38L82.34-45.38L82.34-45.38Q84.16-44.03 84.16-41.54L84.16-41.54L84.16-41.54Q84.16-39.04 82.14-37.76L82.14-37.76L82.14-37.76Q80.13-36.48 77.12-36.48L77.12-36.48L77.12-36.48Q74.11-36.48 72.22-37.76L72.22-37.76L72.22-37.76Q70.34-39.04 70.34-41.54ZM112.32 1.28L112.32 1.28L112.32 1.28Q104.58 1.28 104.58-4.74L104.58-4.74L104.58-4.74Q104.64-6.40 105.15-9.22L105.15-9.22L106.30-15.10L106.30-15.10Q108.03-23.42 108.03-25.28L108.03-25.28L108.03-25.28Q108.03-28.99 105.86-28.99L105.86-28.99L105.86-28.99Q102.21-28.99 100.29-19.46L100.29-19.46L96.51 0L83.65 1.28L90.30-32.70L100.80-33.92L99.78-27.65L99.78-27.65Q102.78-33.92 112-33.92L112-33.92L112-33.92Q116.48-33.92 118.37-32.03L118.37-32.03L118.37-32.03Q120.26-30.14 120.26-25.92L120.26-25.92L120.26-25.92Q120.26-21.95 118.21-12.67L118.21-12.67L118.21-12.67Q117.25-8.51 117.25-6.94L117.25-6.94L117.25-6.94Q117.25-5.38 118.11-4.48L118.11-4.48L118.11-4.48Q118.98-3.58 120.26-3.46L120.26-3.46L120.26-3.46Q119.62-1.28 117.41 0L117.41 0L117.41 0Q115.20 1.28 112.32 1.28ZM141.89-30.34L141.89-30.34L141.89-30.34Q145.34-33.92 152.64-33.92L152.64-33.92L152.64-33.92Q156.67-33.92 158.88-31.78L158.88-31.78L158.88-31.78Q161.09-29.63 161.09-25.70L161.09-25.70L161.09-25.70Q161.09-21.76 158.88-18.98L158.88-18.98L158.88-18.98Q156.67-16.19 152.58-15.04L152.58-15.04L152.58-15.04Q152.90-13.76 153.34-12.42L153.34-12.42L154.24-9.86L154.24-9.86Q155.46-6.59 156.42-5.44L156.42-5.44L156.42-5.44Q157.38-4.29 158.66-3.90L158.66-3.90L158.66-3.90Q157.95-1.28 155.39 0.13L155.39 0.13L155.39 0.13Q153.34 1.28 150.53 1.28L150.53 1.28L150.53 1.28Q142.27 1.28 141.18-11.46L141.18-11.46L141.18-11.46Q140.99-13.25 140.99-15.04L140.99-15.04L140.99-15.04Q144.19-15.94 146.43-18.94L146.43-18.94L146.43-18.94Q148.67-21.95 148.67-25.47L148.67-25.47L148.67-25.47Q148.67-28.99 146.18-28.99L146.18-28.99L146.18-28.99Q144.38-28.99 142.98-27.01L142.98-27.01L142.98-27.01Q141.57-25.02 140.93-21.63L140.93-21.63L136.70 0L123.78 1.28L132.74-44.80L145.60-46.08L144.13-38.46L144.13-38.46Q143.17-33.09 141.89-30.34ZM179.39-3.52L179.39-3.52L179.39-3.52Q177.41 1.28 171.07 1.28L171.07 1.28L171.07 1.28Q167.81 1.28 165.76-0.96L165.76-0.96L165.76-0.96Q164.03-2.94 164.03-4.93L164.03-4.93L164.03-4.93Q164.03-10.11 166.40-20.22L166.40-20.22L168.77-32.64L181.76-33.92L177.86-13.70L177.86-13.70Q176.77-8.96 176.77-7.30L176.77-7.30L176.77-7.30Q176.77-3.65 179.39-3.52ZM169.92-41.54L169.92-41.54L169.92-41.54Q169.92-44.03 172-45.38L172-45.38L172-45.38Q174.08-46.72 177.09-46.72L177.09-46.72L177.09-46.72Q180.10-46.72 181.92-45.38L181.92-45.38L181.92-45.38Q183.74-44.03 183.74-41.54L183.74-41.54L183.74-41.54Q183.74-39.04 181.73-37.76L181.73-37.76L181.73-37.76Q179.71-36.48 176.70-36.48L176.70-36.48L176.70-36.48Q173.70-36.48 171.81-37.76L171.81-37.76L171.81-37.76Q169.92-39.04 169.92-41.54ZM211.90 1.28L211.90 1.28L211.90 1.28Q204.16 1.28 204.16-4.74L204.16-4.74L204.16-4.74Q204.22-6.40 204.74-9.22L204.74-9.22L205.89-15.10L205.89-15.10Q207.62-23.42 207.62-25.28L207.62-25.28L207.62-25.28Q207.62-28.99 205.44-28.99L205.44-28.99L205.44-28.99Q201.79-28.99 199.87-19.46L199.87-19.46L196.10 0L183.23 1.28L189.89-32.70L200.38-33.92L199.36-27.65L199.36-27.65Q202.37-33.92 211.58-33.92L211.58-33.92L211.58-33.92Q216.06-33.92 217.95-32.03L217.95-32.03L217.95-32.03Q219.84-30.14 219.84-25.92L219.84-25.92L219.84-25.92Q219.84-21.95 217.79-12.67L217.79-12.67L217.79-12.67Q216.83-8.51 216.83-6.94L216.83-6.94L216.83-6.94Q216.83-5.38 217.70-4.48L217.70-4.48L217.70-4.48Q218.56-3.58 219.84-3.46L219.84-3.46L219.84-3.46Q219.20-1.28 216.99 0L216.99 0L216.99 0Q214.78 1.28 211.90 1.28ZM229.50-26.75L229.50-26.75L229.50-26.75Q231.68-29.82 234.98-31.87L234.98-31.87L234.98-31.87Q238.27-33.92 242.30-33.92L242.30-33.92L242.30-33.92Q246.34-33.92 248.26-32.64L248.26-32.64L260.80-33.92L256.45-9.34L256.45-9.34Q254.21 3.20 249.47 8.13L249.47 8.13L249.47 8.13Q244.93 12.80 236.10 12.80L236.10 12.80L236.10 12.80Q229.38 12.80 225.54 10.69L225.54 10.69L225.54 10.69Q221.70 8.58 221.70 5.06L221.70 5.06L221.70 5.06Q221.70 2.43 223.68 0.93L223.68 0.93L223.68 0.93Q225.66-0.58 228.74-0.58L228.74-0.58L228.74-0.58Q231.42-0.58 233.47 0.64L233.47 0.64L233.47 0.64Q234.69 1.28 235.26 2.18L235.26 2.18L235.26 2.18Q233.79 3.46 233.79 5.57L233.79 5.57L233.79 5.57Q233.79 8.32 236.35 8.32L236.35 8.32L236.35 8.32Q240.64 8.32 243.07-1.79L243.07-1.79L243.07-1.79Q243.78-4.54 244.35-7.30L244.35-7.30L244.35-7.30Q241.47-3.78 234.94-3.78L234.94-3.78L234.94-3.78Q230.40-3.78 227.78-5.95L227.78-5.95L227.78-5.95Q225.15-8.13 225.15-13.25L225.15-13.25L225.15-13.25Q225.15-16.45 226.24-20.06L226.24-20.06L226.24-20.06Q227.33-23.68 229.50-26.75ZM237.82-13.06L237.82-13.06L237.82-13.06Q237.82-8.70 240.06-8.70L240.06-8.70L240.06-8.70Q241.60-8.70 243.07-10.37L243.07-10.37L243.07-10.37Q244.22-11.71 244.67-13.70L244.67-13.70L247.94-30.14L247.94-30.14Q247.62-30.21 247.30-30.34L247.30-30.34L247.30-30.34Q246.66-30.59 245.82-30.59L245.82-30.59L245.82-30.59Q241.92-30.59 239.62-24.19L239.62-24.19L239.62-24.19Q237.82-19.20 237.82-13.06ZM291.84-3.52L291.84-3.52L291.84-3.52Q289.86 1.28 283.52 1.28L283.52 1.28L283.52 1.28Q280.26 1.28 278.21-0.96L278.21-0.96L278.21-0.96Q276.48-2.94 276.48-4.93L276.48-4.93L276.48-4.93Q276.48-10.11 278.85-20.22L278.85-20.22L281.22-32.64L294.21-33.92L290.30-13.70L290.30-13.70Q289.22-8.96 289.22-7.30L289.22-7.30L289.22-7.30Q289.22-3.65 291.84-3.52ZM282.37-41.54L282.37-41.54L282.37-41.54Q282.37-44.03 284.45-45.38L284.45-45.38L284.45-45.38Q286.53-46.72 289.54-46.72L289.54-46.72L289.54-46.72Q292.54-46.72 294.37-45.38L294.37-45.38L294.37-45.38Q296.19-44.03 296.19-41.54L296.19-41.54L296.19-41.54Q296.19-39.04 294.18-37.76L294.18-37.76L294.18-37.76Q292.16-36.48 289.15-36.48L289.15-36.48L289.15-36.48Q286.14-36.48 284.26-37.76L284.26-37.76L284.26-37.76Q282.37-39.04 282.37-41.54ZM324.35 1.28L324.35 1.28L324.35 1.28Q316.61 1.28 316.61-4.74L316.61-4.74L316.61-4.74Q316.67-6.40 317.18-9.22L317.18-9.22L318.34-15.10L318.34-15.10Q320.06-23.42 320.06-25.28L320.06-25.28L320.06-25.28Q320.06-28.99 317.89-28.99L317.89-28.99L317.89-28.99Q314.24-28.99 312.32-19.46L312.32-19.46L308.54 0L295.68 1.28L302.34-32.70L312.83-33.92L311.81-27.65L311.81-27.65Q314.82-33.92 324.03-33.92L324.03-33.92L324.03-33.92Q328.51-33.92 330.40-32.03L330.40-32.03L330.40-32.03Q332.29-30.14 332.29-25.92L332.29-25.92L332.29-25.92Q332.29-21.95 330.24-12.67L330.24-12.67L330.24-12.67Q329.28-8.51 329.28-6.94L329.28-6.94L329.28-6.94Q329.28-5.38 330.14-4.48L330.14-4.48L330.14-4.48Q331.01-3.58 332.29-3.46L332.29-3.46L332.29-3.46Q331.65-1.28 329.44 0L329.44 0L329.44 0Q327.23 1.28 324.35 1.28Z" fill="url(#editing-outline-gradient)"></path></g></g><style>text {
  font-size: 64px;
  font-family: Arial Black;
  dominant-baseline: central;
  text-anchor: middle;
}</style></svg>